<svg width="72" height="75" viewBox="0 0 72 75" fill="none" xmlns="http://www.w3.org/2000/svg">
<path d="M28.1502 1.26684L29.0366 4.57504C28.5937 4.6691 28.1538 4.77465 27.717 4.89168C9.75158 9.70551 -0.923395 28.1646 3.89042 46.13C4.00738 46.5665 4.13584 46.9999 4.27578 47.4303L0.965451 48.3173C3.00432 54.9609 6.77597 60.6232 11.6401 64.9831C12.3642 64.0997 13.0946 63.2391 13.8219 62.3671C18.5663 66.6484 24.4621 69.5254 30.8128 70.6061C30.5687 71.718 30.3361 72.8268 30.092 73.9387C35.2361 74.838 40.6481 74.6683 46.0274 73.2269C54.8664 70.8585 62.0965 65.4739 66.9243 58.4801L63.9662 56.7735C69.5067 48.8992 71.6546 38.7083 68.9676 28.6803C68.8137 28.106 68.6514 27.5462 68.4661 26.9926L71.7764 26.1056C70.6375 22.5449 68.9923 19.2554 66.9488 16.3187C65.9952 16.9436 65.0561 17.5769 64.1201 18.2217C59.3408 11.3274 52.1453 6.4964 44.0638 4.61134C44.5371 3.57344 45.0074 2.52406 45.4808 1.48616C39.9529 0.074135 34.0446 -0.0909771 28.1502 1.26684ZM66.9821 29.2246C71.4943 46.0643 61.4621 63.4279 44.6116 67.9429C27.761 72.458 10.3911 62.4369 5.87892 45.5972C1.36674 28.7575 11.399 11.394 28.2495 6.87891C45.1 2.36383 62.47 12.3849 66.9821 29.2246Z" fill="#FFBF47"/>
</svg>
