<svg width="20" height="21" viewBox="0 0 20 21" fill="none" xmlns="http://www.w3.org/2000/svg">
<path d="M9.875 10.145C12.3605 10.145 14.375 8.09809 14.375 5.5725C14.375 3.04691 12.3605 1 9.875 1C7.38945 1 5.375 3.04691 5.375 5.5725C5.375 8.09809 7.38945 10.145 9.875 10.145ZM13.243 11.3096L11.5625 18.1469L10.4375 13.2886L11.5625 11.2881H8.1875L9.3125 13.2886L8.1875 18.1469L6.50703 11.3096C4.00039 11.431 2 13.5136 2 16.0893V17.5753C2 18.522 2.75586 19.29 3.6875 19.29H16.0625C16.9941 19.29 17.75 18.522 17.75 17.5753V16.0893C17.75 13.5136 15.7496 11.431 13.243 11.3096Z" fill="#FFBF47"/>
</svg>
