<svg width="22" height="22" viewBox="0 0 22 22" fill="none" xmlns="http://www.w3.org/2000/svg">
<path d="M11.0078 3C5.4849 3 1.00781 7.51535 1.00781 13.0855C1.00781 14.9345 1.5026 16.6665 2.36406 18.1562C2.55885 18.4931 2.93003 18.6885 3.31684 18.6885H18.6988C19.0856 18.6885 19.4568 18.4931 19.6516 18.1562C20.513 16.6665 21.0078 14.9345 21.0078 13.0855C21.0078 7.51535 16.5307 3 11.0078 3ZM11.0078 5.24122C11.5186 5.24122 11.9307 5.59596 12.0606 6.06942C12.022 6.14856 11.9689 6.21755 11.9408 6.30299L11.6207 7.27197C11.4425 7.39418 11.2398 7.48243 11.0082 7.48243C10.3946 7.48243 9.89705 6.98061 9.89705 6.36182C9.89705 5.74304 10.3943 5.24122 11.0078 5.24122ZM4.34115 15.3267C3.7276 15.3267 3.23003 14.8249 3.23003 14.2061C3.23003 13.5873 3.7276 13.0855 4.34115 13.0855C4.95469 13.0855 5.45226 13.5873 5.45226 14.2061C5.45226 14.8249 4.95469 15.3267 4.34115 15.3267ZM6.00781 9.72365C5.39427 9.72365 4.8967 9.22183 4.8967 8.60304C4.8967 7.98425 5.39427 7.48243 6.00781 7.48243C6.62135 7.48243 7.11892 7.98425 7.11892 8.60304C7.11892 9.22183 6.62135 9.72365 6.00781 9.72365ZM14.5762 7.18792L12.4467 13.6314C12.922 14.0425 13.23 14.6452 13.23 15.3267C13.23 15.7371 13.1127 16.1164 12.9217 16.4473H9.09392C8.90295 16.1164 8.78559 15.7371 8.78559 15.3267C8.78559 14.1381 9.70573 13.1755 10.8655 13.0998L12.9953 6.65598C13.1401 6.21614 13.6109 5.97486 14.0495 6.12475C14.4859 6.27147 14.7214 6.74773 14.5762 7.18792ZM15.0852 9.19101L15.6241 7.56087C15.7446 7.5157 15.8717 7.48278 16.0078 7.48278C16.6214 7.48278 17.1189 7.9846 17.1189 8.60339C17.1189 9.22218 16.6214 9.724 16.0078 9.724C15.6127 9.72365 15.2825 9.50408 15.0852 9.19101ZM17.6745 15.3267C17.0609 15.3267 16.5634 14.8249 16.5634 14.2061C16.5634 13.5873 17.0609 13.0855 17.6745 13.0855C18.288 13.0855 18.7856 13.5873 18.7856 14.2061C18.7856 14.8249 18.288 15.3267 17.6745 15.3267Z" fill="white"/>
</svg>
