<svg width="32" height="32" viewBox="0 0 32 32" fill="none" xmlns="http://www.w3.org/2000/svg">
<path d="M16.0268 3.88C11.6135 3.88 8.02678 7.46667 8.02678 11.88V15.7333C8.02678 16.5467 7.68012 17.7867 7.26678 18.48L5.73345 21.0267C4.78678 22.6 5.44012 24.3467 7.17345 24.9333C12.9201 26.8533 19.1201 26.8533 24.8668 24.9333C26.4801 24.4 27.1868 22.4933 26.3068 21.0267L24.7734 18.48C24.3734 17.7867 24.0268 16.5467 24.0268 15.7333V11.88C24.0268 7.48 20.4268 3.88 16.0268 3.88Z" stroke="white" stroke-width="1.5" stroke-miterlimit="10" stroke-linecap="round"/>
<path d="M18.4929 4.26691C16.8805 3.8077 15.172 3.8077 13.5596 4.26691C13.9462 3.28025 14.9062 2.58691 16.0262 2.58691C17.1462 2.58691 18.1062 3.28025 18.4929 4.26691V4.26691Z" stroke="white" stroke-width="1.5" stroke-miterlimit="10" stroke-linecap="round" stroke-linejoin="round"/>
<path d="M20.0264 25.4131C20.0264 27.6131 18.2264 29.4131 16.0264 29.4131C14.933 29.4131 13.9197 28.9598 13.1997 28.2398C12.4506 27.4895 12.0288 26.4733 12.0264 25.4131" stroke="white" stroke-width="1.5" stroke-miterlimit="10"/>
</svg>
