<svg width="103" height="102" viewBox="0 0 103 102" fill="none" xmlns="http://www.w3.org/2000/svg">
<g opacity="0.3" clip-path="url(#clip0_1195_1613)">
<path d="M20.0774 30.9266L23.0435 32.6391C22.7968 33.0188 22.5604 33.4044 22.3343 33.796C13.0347 49.9034 18.5389 70.5043 34.6463 79.8039C35.0376 80.0298 35.4349 80.2455 35.8382 80.4508L34.1246 83.4188C40.2641 86.6748 46.9348 88.0117 53.4573 87.6552C53.3446 86.5184 53.2526 85.3935 53.1502 84.2627C59.5323 83.9352 65.7356 81.8006 70.9905 78.0741C71.6041 79.0329 72.2237 79.9815 72.8373 80.9403C77.1106 77.9388 80.8174 73.9919 83.602 69.1689C88.1774 61.2441 89.4824 52.3241 87.9508 43.965L84.6523 44.8499C83.0021 35.3643 77.3148 26.6395 68.324 21.4486C67.809 21.1513 67.2984 20.8703 66.7759 20.6098L68.4895 17.6419C65.1664 15.9294 61.677 14.7667 58.1555 14.1351C57.9231 15.2513 57.7068 16.3631 57.5009 17.4809C49.2464 15.9854 40.7424 17.6573 33.6949 22.0389C33.2958 20.9703 32.8863 19.8957 32.4871 18.8271C27.5799 21.7374 23.2853 25.7985 20.0774 30.9266ZM67.3049 23.2374C82.403 31.9543 87.587 51.326 78.8645 66.4338C70.142 81.5415 50.7736 86.7379 35.6756 78.0211C20.5775 69.3042 15.3935 49.9325 24.116 34.8247C32.8385 19.7169 52.2069 14.5205 67.3049 23.2374Z" fill="white"/>
</g>
<defs>
<clipPath id="clip0_1195_1613">
<rect width="74.1469" height="74.1469" fill="white" transform="translate(65.0725 101.287) rotate(-150)"/>
</clipPath>
</defs>
</svg>
