<svg width="18" height="19" viewBox="0 0 18 19" fill="none" xmlns="http://www.w3.org/2000/svg">
<path d="M4.91332 14.0412L6.75296 15.9401M15.2313 11.9275C14.4503 12.7317 13.4713 13.3006 12.4001 13.5727C11.3288 13.8448 10.2059 13.8098 9.1525 13.4715L5.38523 17.352C5.11328 17.641 4.57738 17.8144 4.19346 17.7566L2.44979 17.5089C1.8739 17.4263 1.33801 16.8649 1.25002 16.2704L1.01007 14.4705C0.954079 14.0742 1.13804 13.521 1.40199 13.2403L5.16127 9.35973C4.52139 7.21305 5.0173 4.77739 6.66498 3.08481C9.02453 0.649149 12.8558 0.649149 15.2233 3.08481C17.5909 5.52047 17.5909 9.49184 15.2313 11.9275ZM11.0004 8.68244C11.3186 8.68244 11.6238 8.55196 11.8488 8.31971C12.0738 8.08745 12.2002 7.77244 12.2002 7.44397C12.2002 7.11551 12.0738 6.8005 11.8488 6.56824C11.6238 6.33598 11.3186 6.2055 11.0004 6.2055C10.6822 6.2055 10.3771 6.33598 10.1521 6.56824C9.92706 6.8005 9.80065 7.11551 9.80065 7.44397C9.80065 7.77244 9.92706 8.08745 10.1521 8.31971C10.3771 8.55196 10.6822 8.68244 11.0004 8.68244Z" stroke="white" stroke-width="1.5" stroke-linecap="round" stroke-linejoin="round"/>
</svg>
