<svg width="22" height="19" viewBox="0 0 22 19" fill="none" xmlns="http://www.w3.org/2000/svg">
<path d="M12.975 12.3763C12.975 12.7071 12.7071 12.975 12.3762 12.975H8.78375C8.45294 12.975 8.185 12.7071 8.185 12.3763V10.58H1V15.9688C1 16.9268 1.83825 17.765 2.79625 17.765H18.3638C19.3218 17.765 20.16 16.9268 20.16 15.9688V10.58H12.975V12.3763ZM18.3638 4.5925H15.37V2.79625C15.37 1.83825 14.5318 1 13.5738 1H7.58625C6.62825 1 5.79 1.83825 5.79 2.79625V4.5925H2.79625C1.83825 4.5925 1 5.43075 1 6.38875V9.3825H20.16V6.38875C20.16 5.43075 19.3218 4.5925 18.3638 4.5925ZM12.975 4.5925H8.185V3.395H12.975V4.5925Z" fill="white"/>
</svg>
