<svg width="23" height="22" viewBox="0 0 23 22" fill="none" xmlns="http://www.w3.org/2000/svg">
<path d="M17.7034 8.6553L17.4199 9.15387C17.3162 9.33865 17.095 9.41536 16.8979 9.34214C16.49 9.18874 16.1167 8.96909 15.7882 8.69365C15.6292 8.56116 15.5877 8.32757 15.6914 8.14627L15.9749 7.6477C15.7364 7.36878 15.5497 7.04454 15.4253 6.6924H14.8549C14.6474 6.6924 14.4677 6.54248 14.4331 6.33329C14.364 5.91491 14.3605 5.47561 14.4331 5.0398C14.4677 4.83061 14.6474 4.6772 14.8549 4.6772H15.4253C15.5497 4.32507 15.7364 4.00082 15.9749 3.7219L15.6914 3.22333C15.5877 3.04203 15.6258 2.80844 15.7882 2.67595C16.1167 2.40052 16.4935 2.18087 16.8979 2.02746C17.095 1.95424 17.3162 2.03095 17.4199 2.21573L17.7034 2.7143C18.0664 2.64806 18.4363 2.64806 18.7992 2.7143L19.0827 2.21573C19.1864 2.03095 19.4077 1.95424 19.6047 2.02746C20.0126 2.18087 20.386 2.40052 20.7144 2.67595C20.8734 2.80844 20.9149 3.04203 20.8112 3.22333L20.5277 3.7219C20.7663 4.00082 20.9529 4.32507 21.0774 4.6772H21.6478C21.8552 4.6772 22.035 4.82712 22.0695 5.03631C22.1387 5.45469 22.1421 5.89399 22.0695 6.3298C22.035 6.53899 21.8552 6.6924 21.6478 6.6924H21.0774C20.9529 7.04454 20.7663 7.36878 20.5277 7.6477L20.8112 8.14627C20.9149 8.32757 20.8769 8.56116 20.7144 8.69365C20.386 8.96909 20.0092 9.18874 19.6047 9.34214C19.4077 9.41536 19.1864 9.33865 19.0827 9.15387L18.7992 8.6553C18.4397 8.72154 18.0664 8.72154 17.7034 8.6553ZM17.3404 6.60524C18.6713 7.63724 20.1889 6.10667 19.1657 4.76436C17.8348 3.72887 16.3172 5.26293 17.3404 6.60524ZM13.3545 11.971L14.5195 12.5567C14.8687 12.7589 15.0208 13.1878 14.8825 13.5713C14.5748 14.415 13.9699 15.189 13.4099 15.8654C13.154 16.1757 12.7115 16.2524 12.3624 16.0502L11.3564 15.4644C10.8033 15.9421 10.1603 16.3221 9.45856 16.5697V17.7411C9.45856 18.1456 9.17163 18.4942 8.77753 18.5639C7.92712 18.7104 7.03523 18.7173 6.15371 18.5639C5.75616 18.4942 5.46231 18.149 5.46231 17.7411V16.5697C4.76055 16.3186 4.11756 15.9421 3.56445 15.4644L2.55847 16.0467C2.21278 16.2489 1.76683 16.1722 1.51101 15.8619C0.950987 15.1855 0.359848 14.4115 0.0521789 13.5713C-0.0860993 13.1912 0.0660067 12.7624 0.415159 12.5567L1.56633 11.971C1.4315 11.2423 1.4315 10.4927 1.56633 9.76052L0.415159 9.1713C0.0660067 8.96909 -0.0895562 8.54025 0.0521789 8.16022C0.359848 7.31648 0.950987 6.54248 1.51101 5.8661C1.76683 5.5558 2.20932 5.4791 2.55847 5.68131L3.56445 6.26705C4.11756 5.7894 4.76055 5.40937 5.46231 5.16183V3.98687C5.46231 3.58593 5.74578 3.23728 6.13988 3.16755C6.99029 3.02111 7.88564 3.01414 8.76716 3.16406C9.16471 3.23379 9.45856 3.57895 9.45856 3.98687V5.15834C10.1603 5.40937 10.8033 5.78591 11.3564 6.26356L12.3624 5.67783C12.7081 5.47561 13.154 5.55231 13.4099 5.86261C13.9699 6.53899 14.5576 7.313 14.8652 8.15673C15.0035 8.53676 14.8687 8.9656 14.5195 9.1713L13.3545 9.75704C13.4894 10.4892 13.4894 11.2388 13.3545 11.971ZM9.28916 12.7066C11.3357 10.022 8.29702 6.95737 5.63516 9.02138C3.58864 11.706 6.62731 14.7706 9.28916 12.7066ZM17.7034 19.0765L17.4199 19.575C17.3162 19.7598 17.095 19.8365 16.8979 19.7633C16.49 19.6099 16.1167 19.3902 15.7882 19.1148C15.6292 18.9823 15.5877 18.7487 15.6914 18.5674L15.9749 18.0689C15.7364 17.7899 15.5497 17.4657 15.4253 17.1136H14.8549C14.6474 17.1136 14.4677 16.9636 14.4331 16.7544C14.364 16.3361 14.3605 15.8968 14.4331 15.461C14.4677 15.2518 14.6474 15.0984 14.8549 15.0984H15.4253C15.5497 14.7462 15.7364 14.422 15.9749 14.1431L15.6914 13.6445C15.5877 13.4632 15.6258 13.2296 15.7882 13.0971C16.1167 12.8217 16.4935 12.602 16.8979 12.4486C17.095 12.3754 17.3162 12.4521 17.4199 12.6369L17.7034 13.1355C18.0664 13.0692 18.4363 13.0692 18.7992 13.1355L19.0827 12.6369C19.1864 12.4521 19.4077 12.3754 19.6047 12.4486C20.0126 12.602 20.386 12.8217 20.7144 13.0971C20.8734 13.2296 20.9149 13.4632 20.8112 13.6445L20.5277 14.1431C20.7663 14.422 20.9529 14.7462 21.0774 15.0984H21.6478C21.8552 15.0984 22.035 15.2483 22.0695 15.4575C22.1387 15.8758 22.1421 16.3151 22.0695 16.751C22.035 16.9601 21.8552 17.1136 21.6478 17.1136H21.0774C20.9529 17.4657 20.7663 17.7899 20.5277 18.0689L20.8112 18.5674C20.9149 18.7487 20.8769 18.9823 20.7144 19.1148C20.386 19.3902 20.0092 19.6099 19.6047 19.7633C19.4077 19.8365 19.1864 19.7598 19.0827 19.575L18.7992 19.0765C18.4397 19.1427 18.0664 19.1427 17.7034 19.0765ZM17.3404 17.0229C18.6713 18.0549 20.1889 16.5243 19.1657 15.182C17.8348 14.15 16.3172 15.6806 17.3404 17.0229Z" fill="white"/>
</svg>
