<svg width="18" height="22" viewBox="0 0 18 22" fill="none" xmlns="http://www.w3.org/2000/svg">
<path d="M17 20.4207C17 16.7003 13.4144 13.6912 9 13.6912C4.58556 13.6912 1 16.7003 1 20.4207M9 10.8071C10.235 10.8071 11.4194 10.3007 12.2927 9.39925C13.166 8.4978 13.6566 7.27518 13.6566 6.00034C13.6566 4.7255 13.166 3.50287 12.2927 2.60142C11.4194 1.69998 10.235 1.19355 9 1.19355C7.765 1.19355 6.58058 1.69998 5.7073 2.60142C4.83402 3.50287 4.34342 4.7255 4.34342 6.00034C4.34342 7.27518 4.83402 8.4978 5.7073 9.39925C6.58058 10.3007 7.765 10.8071 9 10.8071V10.8071Z" stroke="white" stroke-width="1.5" stroke-linecap="round" stroke-linejoin="round"/>
</svg>
